<?xml version="1.0" encoding="iso-8859-1"?>
<!-- Generator: Adobe Illustrator 17.1.0, SVG Export Plug-In . SVG Version: 6.00 Build 0)  -->
<!DOCTYPE svg PUBLIC "-//W3C//DTD SVG 1.1//EN" "http://www.w3.org/Graphics/SVG/1.1/DTD/svg11.dtd">
<svg version="1.1" xmlns="http://www.w3.org/2000/svg" xmlns:xlink="http://www.w3.org/1999/xlink" x="0px" y="0px"
	 viewBox="0 0 1280 800" style="enable-background:new 0 0 1280 800;" xml:space="preserve">
<g id="Layer_1" style="display:none;">
	<image style="display:inline;overflow:visible;" width="1280" height="800" xlink:href="../cave.png" >
	</image>
</g>
<g id="Layer_2">
	<g>
		<g>
			<path style="fill:#2DAFAC;" d="M731.198,462.91c-22.752-0.443-45.105,10.779-58.714,28.996
				c-14.003,18.746-16.916,42.567-9.347,64.546c7.476,21.708,25.004,38.424,47.16,44.423c22.345,6.05,47.229,0.386,64.896-14.418
				c18.958-15.886,26.54-42.169,16.682-65.133c-11.081-25.811-35.555-40.526-58.914-53.903c0.413,0.72,0.826,1.439,1.238,2.159
				c-0.295-51.266-0.591-102.531-0.886-153.797c-1.055,0.804-2.11,1.607-3.165,2.411c22.894,8.17,47.646,9.253,71.189,3.238
				c3.122-0.798,1.797-5.62-1.329-4.821c-22.73,5.808-46.443,4.644-68.53-3.238c-1.545-0.551-3.173,0.875-3.165,2.411
				c0.192,33.289,0.384,66.579,0.576,99.868c0.096,16.645,0.192,33.289,0.288,49.934c0.01,1.806-0.725,5.016,1.261,6.153
				c3.07,1.758,6.137,3.522,9.19,5.311c6.611,3.874,13.083,7.971,19.278,12.485c23.391,17.043,41.136,45.562,27.553,74.358
				c-11.39,24.145-38.436,36.034-64.131,34.026c-34.778-2.718-59.236-34.343-58.371-68.226c0.887-34.76,33.288-62.443,67.241-61.782
				C734.424,467.973,734.418,462.973,731.198,462.91L731.198,462.91z"/>
		</g>
	</g>
	<g>
		<path style="fill:#FFFFFF;" d="M725.053,524.609c-7.618,2.795-10.105,14.382-4.154,19.899s17.527,1.88,19.046-6.091
			c0.853-4.477-1.27-9.295-4.969-11.958c-3.698-2.663-8.744-3.193-13.041-1.676"/>
		<g>
			<path style="fill:#2DAFAC;" d="M724.388,522.199c-14.351,6.018-10.834,30.262,6.189,27.231
				c7.181-1.279,13.196-7.377,11.882-15.06c-1.719-10.05-11.851-14.848-21.189-11.997c-3.075,0.939-1.763,5.765,1.329,4.821
				c6.43-1.963,13.013,0.591,14.847,7.39c1.377,5.105-2.879,8.771-7.321,9.868c-10.861,2.682-13.479-13.628-4.408-17.432
				C728.645,525.793,727.361,520.952,724.388,522.199L724.388,522.199z"/>
		</g>
	</g>
	<g>
		<g>
			<path style="fill:#2DAFAC;" d="M821.664,288.345c23.929,1.437,47.859,2.875,71.788,4.312c3.222,0.194,3.203-4.808,0-5
				c-23.93-1.437-47.859-2.875-71.788-4.312C818.442,283.151,818.46,288.153,821.664,288.345L821.664,288.345z"/>
		</g>
	</g>
	<g>
		<g>
			<path style="fill:#2DAFAC;" d="M849.86,292.658c3.313,18.122,4.935,36.443,4.914,54.864c-0.004,3.225,4.996,3.224,5,0
				c0.021-18.866-1.7-37.637-5.093-56.193C854.102,288.16,849.283,289.506,849.86,292.658L849.86,292.658z"/>
		</g>
	</g>
	<g>
		<g>
			<path style="fill:#2DAFAC;" d="M912.116,313.704c-8.223,4.224-14.034,11.179-17.294,19.773
				c-2.232,5.885-4.096,17.999,5.065,18.791c8.945,0.773,18.602-4.985,23.442-12.227c4.875-7.295,2.924-17.237-4.327-21.999
				c-1.79-1.176-4.383,0.771-3.672,2.823c3.24,9.364,7.065,18.483,11.472,27.358c1.434,2.888,5.746,0.354,4.317-2.524
				c-4.217-8.491-7.868-17.204-10.968-26.163c-1.224,0.941-2.448,1.882-3.672,2.823c6.208,4.078,5.275,11.873,1.142,17.101
				c-3.654,4.622-10.619,7.653-16.433,7.921c-7.222,0.333-0.537-15.125,0.655-17.318c2.874-5.29,7.499-9.32,12.797-12.041
				C917.509,316.548,914.979,312.234,912.116,313.704L912.116,313.704z"/>
		</g>
	</g>
	<g>
		<g>
			<path style="fill:#2DAFAC;" d="M949.005,268.665c-0.727,25.564-1.454,51.128-2.181,76.693c1.667,0,3.333,0,5,0
				c-0.338-5.542-0.68-11.162,2.028-16.214c4.224-7.881,12.802-4.142,18.633-0.561c4.078,2.505,8.048,7.702,2.795,11.539
				c-2.368,1.729-5.432,2.548-8.215,3.318c-5.982,1.654-12.341,1.295-18.286-0.257c-3.123-0.815-4.447,4.008-1.329,4.821
				c9.45,2.466,18.817,1.652,27.775-2.177c8.228-3.517,9.862-11.63,4.061-18.244c-5.53-6.305-16.308-10.442-24.103-6.684
				c-8.832,4.258-8.858,16.285-8.36,24.459c0.195,3.201,4.908,3.242,5,0c0.727-25.564,1.454-51.128,2.181-76.693
				C954.097,265.439,949.096,265.448,949.005,268.665L949.005,268.665z"/>
		</g>
	</g>
	<g>
		<g>
			<path style="fill:#2DAFAC;" d="M997.531,279.094c-1.477,23.121-2.955,46.242-4.432,69.364c-0.206,3.221,4.795,3.201,5,0
				c1.477-23.121,2.955-46.242,4.432-69.364C1002.737,275.873,997.735,275.893,997.531,279.094L997.531,279.094z"/>
		</g>
	</g>
	<g>
		<g>
			<path style="fill:#2DAFAC;" d="M1024.202,336.795c6.152,0.735,53.635,7.421,48.787-7.126
				c-2.301-6.905-10.784-11.467-17.144-13.996c-8.115-3.227-16.461-3.603-24.469,0.111c-13.225,6.133-17.882,29.913-8.759,40.839
				c4.847,5.805,14.436,6.649,21.394,6.644c9.101-0.006,18.091-3.097,25.656-8.033c2.688-1.754,0.186-6.085-2.524-4.317
				c-10.447,6.816-24.985,10.138-36.88,5.041c-12.342-5.288-7.293-26.591,0.41-33.766c10.163-9.465,27.789-1.939,36.097,6.3
				c5.247,5.204-5.363,4.841-7.161,4.908c-3.94,0.146-7.883,0.138-11.825,0.079c-7.885-0.118-15.755-0.748-23.582-1.683
				C1021.005,331.413,1021.042,336.417,1024.202,336.795L1024.202,336.795z"/>
		</g>
	</g>
	<g>
		<g>
			<path style="fill:#2DAFAC;" d="M1095.786,361.315c1.431-23.828,2.862-47.655,4.293-71.483c0.193-3.222-4.808-3.203-5,0
				c-1.431,23.828-2.862,47.655-4.293,71.483C1090.593,364.537,1095.594,364.518,1095.786,361.315L1095.786,361.315z"/>
		</g>
	</g>
	<g>
		<g>
			<path style="fill:#2DAFAC;" d="M1081.28,330.598c19.036,0.714,37.869,3.302,56.393,7.745c3.134,0.752,4.464-4.07,1.329-4.821
				c-18.947-4.544-38.251-7.193-57.722-7.923C1078.054,325.477,1078.066,330.477,1081.28,330.598L1081.28,330.598z"/>
		</g>
	</g>
</g>
</svg>
